<svg version="1.1" id="Layer_1" xmlns="http://www.w3.org/2000/svg" xmlns:xlink="http://www.w3.org/1999/xlink" x="0px" y="0px"
	 width="100%" viewBox="0 0 1392 1391" enable-background="new 0 0 1392 1391" xml:space="preserve">
<path fill="#FFFFFF" opacity="1.000000" stroke="none" 
	d="
M775.000000,1392.000000 
	C516.666687,1392.000000 258.833435,1392.000000 1.000104,1392.000000 
	C1.000069,928.333435 1.000069,464.666931 1.000035,1.000290 
	C464.999786,1.000194 928.999573,1.000194 1392.999512,1.000097 
	C1392.999756,464.666382 1392.999756,928.332764 1392.999878,1391.999512 
	C1187.166626,1392.000000 981.333313,1392.000000 775.000000,1392.000000 
M968.173706,338.130981 
	C966.765991,338.133942 965.358215,338.136932 963.530212,337.553131 
	C962.864197,336.028687 962.150940,334.522919 961.539124,332.976990 
	C953.248596,312.029694 938.411804,297.565002 917.749268,288.970520 
	C900.326355,281.723541 881.886475,279.160675 863.258240,278.058960 
	C846.118469,277.045288 829.558472,280.806763 813.137207,285.340179 
	C801.489746,288.555603 789.731750,291.370605 777.372864,293.924622 
	C775.948547,293.520386 774.524231,293.116180 773.011902,292.050415 
	C772.428772,291.246887 771.923584,290.370636 771.251160,289.650482 
	C750.488464,267.412476 724.848083,256.559906 694.462891,256.150024 
	C679.063110,255.942307 664.762634,261.280334 649.908203,263.595337 
	C635.150879,265.895203 621.016541,269.602325 607.230652,275.058411 
	C585.902954,283.499359 565.827026,294.034698 548.315491,309.870544 
	C546.552185,309.884979 544.788940,309.899445 542.649109,309.344147 
	C536.288879,307.054077 530.054688,304.289246 523.545105,302.561981 
	C503.101013,297.137238 482.375854,296.117279 462.002319,302.258514 
	C448.571747,306.306976 435.637909,312.008575 422.495331,317.006012 
	C401.917084,324.830902 384.076904,336.649048 369.381073,353.163574 
	C358.217834,365.708221 348.137207,378.819580 344.096649,395.940002 
	C343.054565,396.933258 342.012512,397.926544 340.160126,398.752655 
	C325.763580,396.612457 311.565765,399.022919 297.439941,401.095337 
	C275.443115,404.322540 255.678589,413.096161 238.245377,426.951050 
	C230.823074,432.849854 223.293671,438.642731 216.205933,444.926971 
	C205.392365,454.514618 194.004807,463.678955 184.486572,474.458435 
	C162.302643,499.581940 153.942627,528.887085 161.736603,562.057251 
	C162.429230,565.005005 161.479218,566.069397 158.779297,567.117859 
	C150.881531,570.184875 142.959534,573.284729 135.362213,577.013794 
	C101.324234,593.721375 79.765976,619.822510 75.563782,658.413330 
	C73.591194,676.528564 75.518326,694.017639 86.277260,709.572205 
	C94.846642,721.961243 106.537918,730.569031 119.736092,737.378784 
	C121.883163,738.486633 124.002739,739.647705 126.416321,740.934204 
	C114.971626,761.534058 109.926208,783.196350 108.539268,805.914246 
	C107.665382,820.228516 108.580521,834.341553 114.008980,847.629150 
	C127.818138,881.430664 153.308853,900.286621 189.401184,905.030579 
	C194.281677,905.672058 199.150345,906.403381 203.975983,907.086243 
	C202.810806,913.962463 201.700668,920.161560 200.716263,926.380615 
	C194.442139,966.017395 229.614899,992.042786 260.354401,989.574097 
	C271.694550,988.663330 282.931305,985.688538 294.030212,982.914734 
	C298.750793,981.735046 301.364563,982.174622 304.412750,986.263306 
	C321.986420,1009.835876 345.416260,1018.275879 374.188019,1012.492676 
	C376.119965,1012.104309 378.580841,1012.999390 380.456268,1013.960144 
	C384.282532,1015.920105 387.724182,1018.652405 391.594055,1020.501953 
	C407.469604,1028.089722 424.651642,1030.187012 441.860992,1032.157227 
	C443.495026,1032.344360 445.893494,1033.081787 446.446442,1034.262207 
	C449.174683,1040.085693 453.951660,1041.142456 459.652069,1041.204224 
	C478.643280,1041.409912 497.633209,1042.084106 516.622498,1042.045166 
	C550.594482,1041.975464 584.568176,1041.681030 618.536499,1041.169922 
	C646.008667,1040.756836 673.471375,1039.732178 700.943115,1039.268677 
	C723.416931,1038.889526 745.897949,1038.944214 768.375549,1038.781128 
	C769.869263,1038.770264 771.361938,1038.549438 772.854126,1038.415405 
	C789.094360,1036.957886 805.307434,1034.969482 821.579651,1034.143677 
	C861.482605,1032.118774 901.431824,1030.964600 941.318237,1028.685669 
	C951.089172,1028.127563 961.512024,1026.288208 970.194397,1022.071411 
	C987.045288,1013.887146 1003.085571,1003.942078 1019.075562,994.099365 
	C1041.363525,980.379944 1063.565918,966.496399 1088.785278,958.743469 
	C1105.174561,953.705078 1120.481079,946.876770 1134.376953,936.735046 
	C1145.971802,928.272705 1156.623657,919.139709 1161.840454,905.237427 
	C1163.287964,901.379883 1164.283936,897.352844 1166.193848,893.493225 
	C1167.493774,892.006287 1168.793701,890.519348 1170.853516,888.976135 
	C1174.145508,887.851624 1177.562134,886.999390 1180.709961,885.559509 
	C1206.390503,873.812744 1224.097290,854.408936 1234.865845,828.511780 
	C1239.847778,816.530823 1242.707031,804.189575 1239.930786,791.124207 
	C1239.211426,787.738525 1238.468506,784.357910 1238.377075,780.635193 
	C1238.785767,779.299438 1239.194458,777.963623 1240.179688,776.292175 
	C1247.424927,765.550537 1254.559326,754.731995 1261.947266,744.089233 
	C1269.048340,733.859558 1274.223511,722.780518 1277.490723,710.796143 
	C1282.628540,691.950256 1282.359375,673.740845 1269.506470,657.770874 
	C1264.745972,651.855835 1258.631958,647.039246 1253.246094,641.611694 
	C1251.944824,640.300354 1251.083862,638.552124 1250.725586,636.727722 
	C1251.173950,634.825745 1251.622192,632.923706 1252.664185,630.718567 
	C1261.205933,620.343323 1265.841919,608.395752 1266.095215,595.007507 
	C1266.462891,575.568054 1262.162354,556.992310 1253.539185,539.634705 
	C1244.146118,520.727112 1231.132446,505.032257 1211.103638,496.456909 
	C1202.255127,492.668396 1193.306274,489.113953 1184.286865,484.827179 
	C1183.757812,483.899689 1183.228638,482.972198 1182.961060,481.309479 
	C1190.066284,460.891785 1188.421509,440.443817 1181.431885,420.624634 
	C1168.015381,382.582123 1141.539551,355.567291 1106.862427,336.120270 
	C1100.953247,332.806458 1094.559814,330.201752 1088.146484,327.969086 
	C1062.595947,319.074158 1036.381348,317.814697 1009.832336,322.111664 
	C995.112549,324.494049 980.917725,328.423126 968.173706,338.130981 
z"/>
<path fill="#AC7C54" opacity="1.000000" stroke="none" 
	d="
M778.023132,294.364349 
	C789.731750,291.370605 801.489746,288.555603 813.137207,285.340179 
	C829.558472,280.806763 846.118469,277.045288 863.258240,278.058960 
	C881.886475,279.160675 900.326355,281.723541 917.749268,288.970520 
	C938.411804,297.565002 953.248596,312.029694 961.539124,332.976990 
	C962.150940,334.522919 962.864197,336.028687 963.541870,338.101562 
	C959.961975,342.691071 956.199951,346.600983 952.909485,350.873993 
	C952.170654,351.833405 952.513062,354.953766 953.365906,355.497192 
	C954.624268,356.299133 957.465149,356.421570 958.434448,355.530579 
	C961.187683,352.999664 963.076477,349.537994 965.791870,346.953705 
	C968.474304,344.400787 969.446655,341.604645 969.020569,338.106445 
	C980.917725,328.423126 995.112549,324.494049 1009.832336,322.111664 
	C1036.381348,317.814697 1062.595947,319.074158 1088.146484,327.969086 
	C1094.559814,330.201752 1100.953247,332.806458 1106.862427,336.120270 
	C1141.539551,355.567291 1168.015381,382.582123 1181.431885,420.624634 
	C1188.421509,440.443817 1190.066284,460.891785 1182.439941,481.673309 
	C1178.304199,483.392700 1174.532715,484.438873 1171.109497,486.172668 
	C1165.219727,489.155701 1159.445557,492.406189 1153.863892,495.926849 
	C1152.669556,496.680298 1152.503906,499.064972 1151.864258,500.698120 
	C1153.671143,501.384949 1155.436035,502.273956 1157.304932,502.662079 
	C1158.086792,502.824493 1159.118164,501.976135 1159.986816,501.497833 
	C1166.506348,497.908539 1173.101807,494.443329 1179.471924,490.604767 
	C1181.436890,489.420654 1182.776978,487.199524 1184.403076,485.453217 
	C1193.306274,489.113953 1202.255127,492.668396 1211.103638,496.456909 
	C1231.132446,505.032257 1244.146118,520.727112 1253.539185,539.634705 
	C1262.162354,556.992310 1266.462891,575.568054 1266.095215,595.007507 
	C1265.841919,608.395752 1261.205933,620.343323 1251.975098,630.710632 
	C1241.725586,630.793152 1232.161011,630.770142 1222.609497,631.114258 
	C1221.383789,631.158447 1220.226807,633.111084 1219.037964,634.179565 
	C1220.272461,635.437439 1221.506348,637.779236 1222.741455,637.779846 
	C1231.834229,637.784180 1240.927368,637.320923 1250.020386,637.004883 
	C1251.083862,638.552124 1251.944824,640.300354 1253.246094,641.611694 
	C1258.631958,647.039246 1264.745972,651.855835 1269.506470,657.770874 
	C1282.359375,673.740845 1282.628540,691.950256 1277.490723,710.796143 
	C1274.223511,722.780518 1269.048340,733.859558 1261.947266,744.089233 
	C1254.559326,754.731995 1247.424927,765.550537 1239.627686,776.122437 
	C1230.789551,770.463684 1221.099976,771.314514 1211.889282,770.224609 
	C1210.792236,770.094788 1209.346436,772.910767 1208.062256,774.361328 
	C1209.597534,775.572266 1210.977173,777.492188 1212.695435,777.869202 
	C1219.422974,779.345459 1226.245972,780.410461 1233.061401,781.445312 
	C1234.561401,781.673035 1236.175049,781.151428 1237.736450,780.974915 
	C1238.468506,784.357910 1239.211426,787.738525 1239.930786,791.124207 
	C1242.707031,804.189575 1239.847778,816.530823 1234.865845,828.511780 
	C1224.097290,854.408936 1206.390503,873.812744 1180.709961,885.559509 
	C1177.562134,886.999390 1174.145508,887.851624 1170.190063,888.823486 
	C1166.019775,884.309021 1162.690674,879.782043 1158.890015,875.693604 
	C1157.847656,874.572388 1154.958374,873.946533 1153.718994,874.604492 
	C1152.668091,875.162476 1151.820801,878.697205 1152.526489,879.542175 
	C1156.575317,884.389282 1161.114502,888.826965 1165.487183,893.403625 
	C1164.283936,897.352844 1163.287964,901.379883 1161.840454,905.237427 
	C1156.623657,919.139709 1145.971802,928.272705 1134.376953,936.735046 
	C1120.481079,946.876770 1105.174561,953.705078 1088.785278,958.743469 
	C1063.565918,966.496399 1041.363525,980.379944 1019.075562,994.099365 
	C1003.085571,1003.942078 987.045288,1013.887146 970.194397,1022.071411 
	C961.512024,1026.288208 951.089172,1028.127563 941.318237,1028.685669 
	C901.431824,1030.964600 861.482605,1032.118774 821.579651,1034.143677 
	C805.307434,1034.969482 789.094360,1036.957886 772.854126,1038.415405 
	C771.361938,1038.549438 769.869263,1038.770264 768.375549,1038.781128 
	C745.897949,1038.944214 723.416931,1038.889526 700.943115,1039.268677 
	C673.471375,1039.732178 646.008667,1040.756836 618.536499,1041.169922 
	C584.568176,1041.681030 550.594482,1041.975464 516.622498,1042.045166 
	C497.633209,1042.084106 478.643280,1041.409912 459.652069,1041.204224 
	C453.951660,1041.142456 449.174683,1040.085693 446.446442,1034.262207 
	C445.893494,1033.081787 443.495026,1032.344360 441.860992,1032.157227 
	C424.651642,1030.187012 407.469604,1028.089722 391.594055,1020.501953 
	C387.724182,1018.652405 384.282532,1015.920105 380.456268,1013.960144 
	C378.580841,1012.999390 376.119965,1012.104309 374.188019,1012.492676 
	C345.416260,1018.275879 321.986420,1009.835876 304.412750,986.263306 
	C301.364563,982.174622 298.750793,981.735046 294.030212,982.914734 
	C282.931305,985.688538 271.694550,988.663330 260.354401,989.574097 
	C229.614899,992.042786 194.442139,966.017395 200.716263,926.380615 
	C201.700668,920.161560 202.810806,913.962463 203.975983,907.086243 
	C199.150345,906.403381 194.281677,905.672058 189.401184,905.030579 
	C153.308853,900.286621 127.818138,881.430664 114.008980,847.629150 
	C108.580521,834.341553 107.665382,820.228516 108.539268,805.914246 
	C109.926208,783.196350 114.971626,761.534058 126.416321,740.934204 
	C124.002739,739.647705 121.883163,738.486633 119.736092,737.378784 
	C106.537918,730.569031 94.846642,721.961243 86.277260,709.572205 
	C75.518326,694.017639 73.591194,676.528564 75.563782,658.413330 
	C79.765976,619.822510 101.324234,593.721375 135.362213,577.013794 
	C142.959534,573.284729 150.881531,570.184875 158.779297,567.117859 
	C161.479218,566.069397 162.429230,565.005005 161.736603,562.057251 
	C153.942627,528.887085 162.302643,499.581940 184.486572,474.458435 
	C194.004807,463.678955 205.392365,454.514618 216.205933,444.926971 
	C223.293671,438.642731 230.823074,432.849854 238.245377,426.951050 
	C255.678589,413.096161 275.443115,404.322540 297.439941,401.095337 
	C311.565765,399.022919 325.763580,396.612457 340.586029,399.219086 
	C342.010162,401.935364 342.794312,404.323090 344.111328,406.367584 
	C344.642303,407.191864 346.545532,407.853607 347.455902,407.535400 
	C348.682831,407.106598 350.054230,405.834045 350.478638,404.615356 
	C351.517181,401.633301 348.044464,396.637573 344.712769,395.812775 
	C348.137207,378.819580 358.217834,365.708221 369.381073,353.163574 
	C384.076904,336.649048 401.917084,324.830902 422.495331,317.006012 
	C435.637909,312.008575 448.571747,306.306976 462.002319,302.258514 
	C482.375854,296.117279 503.101013,297.137238 523.545105,302.561981 
	C530.054688,304.289246 536.288879,307.054077 542.706116,309.949341 
	C540.009460,314.041473 537.335510,317.595581 534.473816,320.991516 
	C532.596436,323.219452 531.223145,325.506653 533.686157,327.920380 
	C536.194031,330.378021 538.215027,328.443024 539.963135,326.540863 
	C542.640747,323.627380 544.945251,320.277863 547.973022,317.805115 
	C551.128418,315.228058 551.637329,312.992310 549.002625,309.986542 
	C565.827026,294.034698 585.902954,283.499359 607.230652,275.058411 
	C621.016541,269.602325 635.150879,265.895203 649.908203,263.595337 
	C664.762634,261.280334 679.063110,255.942307 694.462891,256.150024 
	C724.848083,256.559906 750.488464,267.412476 771.251160,289.650482 
	C771.923584,290.370636 772.428772,291.246887 772.887451,292.692627 
	C767.158569,297.413269 761.446228,301.354309 755.997681,305.631378 
	C753.484314,307.604370 749.843567,310.429718 752.832886,313.744293 
	C755.817444,317.053436 758.988037,314.001007 761.777100,311.764313 
	C766.397522,308.058868 771.015320,304.277710 776.025879,301.157318 
	C779.186035,299.189270 779.792480,297.352356 778.023132,294.364349 
M226.975449,949.004089 
	C226.975449,949.004089 226.912201,949.035095 226.981659,949.738037 
	C230.974014,953.583740 234.966385,957.429382 239.418930,961.781738 
	C245.179962,965.171936 251.489685,967.094971 258.040192,966.002808 
	C269.948151,964.017212 281.955292,962.091248 293.529694,958.774658 
	C308.281067,954.547852 311.406586,955.096436 319.958832,968.030151 
	C320.417877,968.724426 320.945099,969.377625 321.360382,970.096313 
	C331.607208,987.828552 353.951691,994.663391 370.059509,989.348267 
	C377.908417,986.758240 385.960907,986.971069 392.549561,993.176331 
	C401.212738,1001.335571 412.135101,1004.308105 423.317505,1005.840820 
	C437.601288,1007.798523 452.086548,1008.292297 466.365112,1010.278564 
	C470.541504,1010.859558 474.915894,1013.744873 478.052399,1016.765259 
	C480.148773,1018.783997 481.610382,1020.084290 484.543030,1020.031677 
	C506.349701,1019.640442 528.159119,1019.403748 549.966492,1019.045715 
	C564.776428,1018.802551 579.586182,1018.506714 594.393005,1018.118164 
	C619.842163,1017.450500 645.286987,1016.592407 670.738953,1016.077637 
	C674.621094,1015.999023 675.919373,1014.627502 677.285767,1011.143799 
	C680.666992,1002.522888 683.511047,993.221619 688.939880,985.966309 
	C702.322021,968.081543 720.999207,956.237427 740.224487,945.409912 
	C762.585388,932.816406 786.729187,925.510742 811.556152,919.184631 
	C832.218872,913.919556 851.970398,905.021362 872.040649,897.505554 
	C888.197449,891.455322 900.561218,880.724792 911.549377,867.378784 
	C927.262695,848.293579 936.162659,826.907166 937.969360,802.509644 
	C939.903259,776.394531 932.434875,752.777283 917.314270,731.635986 
	C909.202148,720.293823 901.163696,708.609070 888.748413,701.374023 
	C859.575684,684.373352 828.498169,676.087463 794.609436,682.155884 
	C780.353943,684.708557 766.860901,681.767761 754.469849,675.411377 
	C733.158508,664.479187 712.448669,652.379272 691.408691,640.911987 
	C673.271423,631.026672 654.870178,621.721191 634.561890,616.946838 
	C613.395569,611.970764 592.019775,610.873901 570.286621,611.604004 
	C549.720520,612.294983 529.593140,614.703308 509.745544,619.998047 
	C485.793732,626.387695 463.071289,634.913513 446.609497,654.848938 
	C435.572662,668.214661 427.925079,683.265137 429.270294,700.840149 
	C431.050323,724.096619 442.513031,742.602356 460.833527,756.956299 
	C476.801636,769.467224 495.269135,777.408752 514.103943,783.765625 
	C530.665588,789.355408 548.124268,792.523804 565.373474,795.769409 
	C580.771301,798.666626 596.184387,797.153625 611.106445,792.097839 
	C618.836670,789.478760 624.875916,785.174011 627.354797,776.681763 
	C628.529236,772.658203 631.421997,769.389404 636.228882,768.984863 
	C645.787720,768.180420 652.283875,775.930359 649.320618,785.121704 
	C645.453186,797.117981 637.566345,805.794067 626.078735,811.081238 
	C604.430176,821.044922 581.667969,821.743408 558.627686,818.546875 
	C534.683289,815.224915 511.541443,809.133423 489.312531,799.142090 
	C466.959167,789.094788 445.489624,778.157043 429.479248,758.906555 
	C414.635864,741.059204 405.648254,720.740784 406.201874,697.294922 
	C406.417297,688.170227 409.107605,679.042908 411.249451,670.054688 
	C412.113007,666.430786 411.634369,665.275696 407.943909,664.945007 
	C404.326294,664.620972 400.711792,663.858215 397.191437,662.926880 
	C385.458496,659.822937 374.430115,655.325623 366.281738,645.773926 
	C362.046051,640.808838 362.012268,634.704529 365.977661,630.841370 
	C370.086578,626.838379 376.293182,627.290100 381.290253,631.613647 
	C383.771667,633.760620 386.571259,635.610596 389.430542,637.236877 
	C398.216797,642.234131 408.163269,642.488342 417.818817,643.983337 
	C422.944580,644.776978 426.445221,643.073303 429.710815,639.017517 
	C438.363251,628.271301 448.926575,619.594299 461.273895,613.449768 
	C490.820618,598.746460 522.236938,590.959412 555.135071,588.929565 
	C558.377563,588.729553 561.593933,588.106018 564.357117,587.740601 
	C565.589783,577.571289 566.478577,567.988098 567.993225,558.504761 
	C569.068970,551.769897 574.979492,547.848267 580.514771,549.415283 
	C587.412720,551.367981 590.779419,557.732910 589.133972,564.431274 
	C587.957275,569.221375 587.253174,574.225464 587.135620,579.153076 
	C586.989014,585.298645 590.104370,587.901184 596.164307,588.089661 
	C599.808289,588.202881 603.437500,588.724915 607.080261,588.952942 
	C630.755127,590.434875 653.541321,596.093872 674.647339,606.595276 
	C701.886536,620.148132 728.634277,634.743042 755.139648,649.693970 
	C769.108398,657.573486 783.211731,660.148132 799.110962,658.564880 
	C812.706543,657.211060 826.767822,657.039673 840.260498,658.931335 
	C862.850586,662.098267 883.675659,671.137146 903.315186,682.783020 
	C904.604431,683.547424 907.322815,683.940796 908.115601,683.184692 
	C915.278137,676.354065 923.266663,670.224915 927.581055,660.849182 
	C930.744934,653.973450 939.422241,652.695740 944.706238,658.116028 
	C949.000122,662.520447 949.199280,668.909729 944.451355,674.904114 
	C938.575134,682.323059 932.370361,689.504272 925.952820,696.460938 
	C923.375854,699.254333 922.566895,700.854248 925.433655,704.170776 
	C939.164307,720.055725 950.020874,737.644897 955.938477,758.012085 
	C961.139343,775.911987 964.047791,793.942627 960.174927,812.562378 
	C958.673645,819.780273 957.605530,827.088318 956.023193,836.174866 
	C968.987732,830.549988 980.993042,825.756470 992.601685,820.142639 
	C999.149231,816.976318 1004.997131,812.383301 1011.244934,808.571960 
	C1017.697815,804.635498 1025.400513,805.679260 1028.731812,810.767700 
	C1032.672119,816.786804 1031.046387,823.071594 1024.134644,827.896606 
	C1010.977295,837.081665 997.015503,844.641541 981.686279,849.698181 
	C968.998596,853.883545 956.503296,858.654602 943.952820,863.248047 
	C943.121033,863.552551 942.444275,864.477539 941.864685,865.242249 
	C937.848328,870.541687 933.906677,875.897766 929.884766,881.193054 
	C921.280884,892.520813 911.840820,902.863403 899.204041,910.015320 
	C878.649536,921.648132 856.486511,929.384705 834.274841,936.841553 
	C819.825439,941.692627 804.659241,944.376282 790.108398,948.964294 
	C761.847534,957.875122 736.759705,972.816895 713.555664,991.061768 
	C705.519226,997.380676 701.219421,1005.958313 698.159058,1016.053162 
	C703.763123,1016.053162 708.904968,1016.129028 714.043884,1016.039856 
	C735.184265,1015.673096 756.344543,1015.707825 777.458130,1014.737976 
	C801.332336,1013.641296 825.160278,1011.562012 849.017639,1010.057617 
	C854.663513,1009.701599 860.358215,1010.156372 866.010437,1009.858521 
	C888.904236,1008.652039 911.795593,1007.384460 934.676819,1005.961914 
	C946.626953,1005.218994 958.481323,1004.003174 969.064392,997.418396 
	C981.777222,989.508606 994.768127,982.041748 1007.410583,974.023560 
	C1030.354248,959.471863 1053.640747,945.604492 1079.673828,937.204285 
	C1093.487061,932.747070 1107.262817,928.288330 1118.782227,919.069153 
	C1124.986938,914.103577 1131.499878,909.239319 1136.598389,903.244629 
	C1143.588623,895.025513 1142.059692,885.075867 1140.046631,875.179688 
	C1138.086060,865.542236 1143.119873,858.713135 1152.883911,857.004517 
	C1162.948120,855.243347 1171.311646,850.508911 1178.317383,843.263062 
	C1187.403320,833.865356 1189.915771,821.518005 1193.484497,809.567810 
	C1196.968018,797.902100 1196.141479,787.007568 1189.832764,776.529541 
	C1188.730225,774.698425 1188.012817,772.599548 1187.341309,770.551025 
	C1184.430542,761.671570 1187.711060,756.264099 1196.489258,752.788879 
	C1201.905762,750.644531 1207.329712,747.579102 1211.602661,743.672058 
	C1222.263428,733.924194 1226.479370,720.731750 1229.078491,706.949036 
	C1231.101685,696.221802 1231.168823,685.519714 1225.271729,675.985535 
	C1219.074341,665.965759 1212.443359,656.144043 1205.202393,646.859192 
	C1197.768555,637.327148 1197.127808,632.344666 1203.867432,622.254272 
	C1206.805908,617.854919 1209.959473,613.406616 1211.839844,608.527466 
	C1218.902954,590.199524 1214.822998,572.770569 1204.561157,557.214600 
	C1192.821777,539.418518 1176.135864,527.099548 1155.836670,520.059631 
	C1150.185791,518.099792 1144.399780,516.532349 1138.717407,514.658691 
	C1132.610229,512.645020 1128.662720,508.340729 1128.169556,502.000458 
	C1127.655029,495.383575 1127.536377,488.601776 1128.386719,482.040070 
	C1130.300537,467.270721 1128.276489,453.288055 1122.432007,439.640747 
	C1115.523315,423.508240 1104.473511,410.629333 1091.606689,399.083984 
	C1081.257446,389.797791 1069.833496,382.232208 1056.963135,376.803528 
	C1039.462036,369.421509 1021.116577,365.494141 1002.326599,364.239624 
	C987.613220,363.257263 973.382996,365.192200 960.345398,373.771088 
	C951.167847,379.810028 940.813293,378.567688 932.368103,371.610870 
	C920.053589,361.466797 908.604736,350.278015 896.417236,339.971710 
	C885.204163,330.489532 873.187073,322.107056 858.847961,317.828064 
	C841.699524,312.710815 824.069092,312.652283 806.438660,313.304749 
	C803.151978,313.426361 799.973083,315.532959 796.668579,316.450012 
	C794.671326,317.004303 792.531555,317.066528 790.449158,317.286987 
	C788.180542,317.527191 785.618103,317.085175 783.678833,317.995300 
	C773.163879,322.930298 762.524353,327.707184 752.463806,333.473724 
	C741.956970,339.496094 736.551147,339.492554 727.236267,331.849670 
	C713.907471,320.913452 699.526001,311.438507 683.216980,305.753723 
	C662.300293,298.462891 640.731018,298.331879 618.759155,300.667938 
	C593.222717,303.382965 574.156128,316.550446 557.582214,334.671722 
	C552.400574,340.337036 547.776062,347.237518 539.394287,347.413422 
	C533.255127,347.542267 526.922363,346.052887 520.933777,344.368103 
	C500.690552,338.672791 480.873260,331.615051 459.204895,332.735382 
	C439.347900,333.762115 421.644012,340.551300 405.959961,351.823669 
	C385.132050,366.793091 368.504089,385.147705 364.658539,412.218414 
	C363.223724,422.319000 356.390594,428.297028 346.291931,430.068176 
	C341.399323,430.926331 336.440704,431.485107 331.489014,431.915619 
	C314.289978,433.411072 297.195435,435.116638 280.454529,439.943207 
	C249.226410,448.946472 222.578995,464.818054 201.557816,489.851562 
	C188.645218,505.228760 181.263184,522.743408 182.248123,542.888245 
	C182.671783,551.553040 185.494659,560.119202 187.425201,568.685608 
	C188.813110,574.844055 186.663757,579.690125 181.743164,582.945862 
	C178.353958,585.188293 174.340897,586.749573 170.392349,587.837585 
	C156.419968,591.687866 143.657501,598.197144 131.749420,606.131531 
	C125.200676,610.494995 119.139526,616.071045 114.116333,622.141235 
	C104.315994,633.984375 100.070831,648.092896 98.606133,663.452637 
	C96.786598,682.533386 102.287888,698.148499 118.226891,708.957764 
	C127.116364,714.986267 137.088593,719.404175 146.487106,724.700134 
	C155.952103,730.033752 156.914719,737.707397 151.144470,746.715454 
	C145.910416,754.886475 141.466919,763.759094 138.014023,772.831970 
	C132.260605,787.949951 131.651505,803.965271 131.927979,820.014893 
	C132.380737,846.299377 152.905289,873.060181 178.503998,878.910095 
	C190.725143,881.703003 203.382248,882.931335 215.916702,883.916809 
	C229.319855,884.970581 235.360565,893.947083 229.952927,906.188965 
	C229.079071,908.167236 228.060974,910.119324 227.492661,912.188721 
	C224.239166,924.035767 220.371857,935.888245 226.247833,948.542664 
	C226.393661,948.858826 226.639664,949.035828 226.975449,949.004089 
z"/>
<path fill="#8B6241" opacity="1.000000" stroke="none" 
	d="
M1184.344971,485.140198 
	C1182.776978,487.199524 1181.436890,489.420654 1179.471924,490.604767 
	C1173.101807,494.443329 1166.506348,497.908539 1159.986816,501.497833 
	C1159.118164,501.976135 1158.086792,502.824493 1157.304932,502.662079 
	C1155.436035,502.273956 1153.671143,501.384949 1151.864258,500.698120 
	C1152.503906,499.064972 1152.669556,496.680298 1153.863892,495.926849 
	C1159.445557,492.406189 1165.219727,489.155701 1171.109497,486.172668 
	C1174.532715,484.438873 1178.304199,483.392700 1182.309204,482.040894 
	C1183.228638,482.972198 1183.757812,483.899689 1184.344971,485.140198 
z"/>
<path fill="#8A6243" opacity="1.000000" stroke="none" 
	d="
M1250.373047,636.866333 
	C1240.927368,637.320923 1231.834229,637.784180 1222.741455,637.779846 
	C1221.506348,637.779236 1220.272461,635.437439 1219.037964,634.179565 
	C1220.226807,633.111084 1221.383789,631.158447 1222.609497,631.114258 
	C1232.161011,630.770142 1241.725586,630.793152 1251.678345,630.862183 
	C1251.622192,632.923706 1251.173950,634.825745 1250.373047,636.866333 
z"/>
<path fill="#8B6142" opacity="1.000000" stroke="none" 
	d="
M777.697998,294.144470 
	C779.792480,297.352356 779.186035,299.189270 776.025879,301.157318 
	C771.015320,304.277710 766.397522,308.058868 761.777100,311.764313 
	C758.988037,314.001007 755.817444,317.053436 752.832886,313.744293 
	C749.843567,310.429718 753.484314,307.604370 755.997681,305.631378 
	C761.446228,301.354309 767.158569,297.413269 772.931519,293.023407 
	C774.524231,293.116180 775.948547,293.520386 777.697998,294.144470 
z"/>
<path fill="#8B6142" opacity="1.000000" stroke="none" 
	d="
M1238.056763,780.805054 
	C1236.175049,781.151428 1234.561401,781.673035 1233.061401,781.445312 
	C1226.245972,780.410461 1219.422974,779.345459 1212.695435,777.869202 
	C1210.977173,777.492188 1209.597534,775.572266 1208.062256,774.361328 
	C1209.346436,772.910767 1210.792236,770.094788 1211.889282,770.224609 
	C1221.099976,771.314514 1230.789551,770.463684 1239.339355,776.290283 
	C1239.194458,777.963623 1238.785767,779.299438 1238.056763,780.805054 
z"/>
<path fill="#8B6242" opacity="1.000000" stroke="none" 
	d="
M548.659058,309.928528 
	C551.637329,312.992310 551.128418,315.228058 547.973022,317.805115 
	C544.945251,320.277863 542.640747,323.627380 539.963135,326.540863 
	C538.215027,328.443024 536.194031,330.378021 533.686157,327.920380 
	C531.223145,325.506653 532.596436,323.219452 534.473816,320.991516 
	C537.335510,317.595581 540.009460,314.041473 542.894409,310.234192 
	C544.788940,309.899445 546.552185,309.884979 548.659058,309.928528 
z"/>
<path fill="#8B6142" opacity="1.000000" stroke="none" 
	d="
M1165.840576,893.448425 
	C1161.114502,888.826965 1156.575317,884.389282 1152.526489,879.542175 
	C1151.820801,878.697205 1152.668091,875.162476 1153.718994,874.604492 
	C1154.958374,873.946533 1157.847656,874.572388 1158.890015,875.693604 
	C1162.690674,879.782043 1166.019775,884.309021 1169.810059,888.851562 
	C1168.793701,890.519348 1167.493774,892.006287 1165.840576,893.448425 
z"/>
<path fill="#8B6242" opacity="1.000000" stroke="none" 
	d="
M968.597168,338.118713 
	C969.446655,341.604645 968.474304,344.400787 965.791870,346.953705 
	C963.076477,349.537994 961.187683,352.999664 958.434448,355.530579 
	C957.465149,356.421570 954.624268,356.299133 953.365906,355.497192 
	C952.513062,354.953766 952.170654,351.833405 952.909485,350.873993 
	C956.199951,346.600983 959.961975,342.691071 963.752075,338.394958 
	C965.358215,338.136932 966.765991,338.133942 968.597168,338.118713 
z"/>
<path fill="#8D6345" opacity="1.000000" stroke="none" 
	d="
M344.404724,395.876404 
	C348.044464,396.637573 351.517181,401.633301 350.478638,404.615356 
	C350.054230,405.834045 348.682831,407.106598 347.455902,407.535400 
	C346.545532,407.853607 344.642303,407.191864 344.111328,406.367584 
	C342.794312,404.323090 342.010162,401.935364 340.991180,399.302673 
	C342.012512,397.926544 343.054565,396.933258 344.404724,395.876404 
z"/>
<path fill="#EED47D" opacity="1.000000" stroke="none" 
	d="
M226.154282,948.080994 
	C220.371857,935.888245 224.239166,924.035767 227.492661,912.188721 
	C228.060974,910.119324 229.079071,908.167236 229.952927,906.188965 
	C235.360565,893.947083 229.319855,884.970581 215.916702,883.916809 
	C203.382248,882.931335 190.725143,881.703003 178.503998,878.910095 
	C152.905289,873.060181 132.380737,846.299377 131.927979,820.014893 
	C131.651505,803.965271 132.260605,787.949951 138.014023,772.831970 
	C141.466919,763.759094 145.910416,754.886475 151.144470,746.715454 
	C156.914719,737.707397 155.952103,730.033752 146.487106,724.700134 
	C137.088593,719.404175 127.116364,714.986267 118.226891,708.957764 
	C102.287888,698.148499 96.786598,682.533386 98.606133,663.452637 
	C100.070831,648.092896 104.315994,633.984375 114.116333,622.141235 
	C119.139526,616.071045 125.200676,610.494995 131.749420,606.131531 
	C143.657501,598.197144 156.419968,591.687866 170.392349,587.837585 
	C174.340897,586.749573 178.353958,585.188293 181.743164,582.945862 
	C186.663757,579.690125 188.813110,574.844055 187.425201,568.685608 
	C185.494659,560.119202 182.671783,551.553040 182.248123,542.888245 
	C181.263184,522.743408 188.645218,505.228760 201.557816,489.851562 
	C222.578995,464.818054 249.226410,448.946472 280.454529,439.943207 
	C297.195435,435.116638 314.289978,433.411072 331.489014,431.915619 
	C336.440704,431.485107 341.399323,430.926331 346.291931,430.068176 
	C356.390594,428.297028 363.223724,422.319000 364.658539,412.218414 
	C368.504089,385.147705 385.132050,366.793091 405.959961,351.823669 
	C421.644012,340.551300 439.347900,333.762115 459.204895,332.735382 
	C480.873260,331.615051 500.690552,338.672791 520.933777,344.368103 
	C526.922363,346.052887 533.255127,347.542267 539.394287,347.413422 
	C547.776062,347.237518 552.400574,340.337036 557.582214,334.671722 
	C574.156128,316.550446 593.222717,303.382965 618.759155,300.667938 
	C640.731018,298.331879 662.300293,298.462891 683.216980,305.753723 
	C699.526001,311.438507 713.907471,320.913452 727.236267,331.849670 
	C736.551147,339.492554 741.956970,339.496094 752.463806,333.473724 
	C762.524353,327.707184 773.163879,322.930298 783.678833,317.995300 
	C785.618103,317.085175 788.180542,317.527191 790.449158,317.286987 
	C792.531555,317.066528 794.671326,317.004303 796.668579,316.450012 
	C799.973083,315.532959 803.151978,313.426361 806.438660,313.304749 
	C824.069092,312.652283 841.699524,312.710815 858.847961,317.828064 
	C873.187073,322.107056 885.204163,330.489532 896.417236,339.971710 
	C908.604736,350.278015 920.053589,361.466797 932.368103,371.610870 
	C940.813293,378.567688 951.167847,379.810028 960.345398,373.771088 
	C973.382996,365.192200 987.613220,363.257263 1002.326599,364.239624 
	C1021.116577,365.494141 1039.462036,369.421509 1056.963135,376.803528 
	C1069.833496,382.232208 1081.257446,389.797791 1091.606689,399.083984 
	C1104.473511,410.629333 1115.523315,423.508240 1122.432007,439.640747 
	C1128.276489,453.288055 1130.300537,467.270721 1128.386719,482.040070 
	C1127.536377,488.601776 1127.655029,495.383575 1128.169556,502.000458 
	C1128.662720,508.340729 1132.610229,512.645020 1138.717407,514.658691 
	C1144.399780,516.532349 1150.185791,518.099792 1155.836670,520.059631 
	C1176.135864,527.099548 1192.821777,539.418518 1204.561157,557.214600 
	C1214.822998,572.770569 1218.902954,590.199524 1211.839844,608.527466 
	C1209.959473,613.406616 1206.805908,617.854919 1203.867432,622.254272 
	C1197.127808,632.344666 1197.768555,637.327148 1205.202393,646.859192 
	C1212.443359,656.144043 1219.074341,665.965759 1225.271729,675.985535 
	C1231.168823,685.519714 1231.101685,696.221802 1229.078491,706.949036 
	C1226.479370,720.731750 1222.263428,733.924194 1211.602661,743.672058 
	C1207.329712,747.579102 1201.905762,750.644531 1196.489258,752.788879 
	C1187.711060,756.264099 1184.430542,761.671570 1187.341309,770.551025 
	C1188.012817,772.599548 1188.730225,774.698425 1189.832764,776.529541 
	C1196.141479,787.007568 1196.968018,797.902100 1193.484497,809.567810 
	C1189.915771,821.518005 1187.403320,833.865356 1178.317383,843.263062 
	C1171.311646,850.508911 1162.948120,855.243347 1152.883911,857.004517 
	C1143.119873,858.713135 1138.086060,865.542236 1140.046631,875.179688 
	C1142.059692,885.075867 1143.588623,895.025513 1136.598389,903.244629 
	C1131.499878,909.239319 1124.986938,914.103577 1118.782227,919.069153 
	C1107.262817,928.288330 1093.487061,932.747070 1079.673828,937.204285 
	C1053.640747,945.604492 1030.354248,959.471863 1007.410583,974.023560 
	C994.768127,982.041748 981.777222,989.508606 969.064392,997.418396 
	C958.481323,1004.003174 946.626953,1005.218994 934.676819,1005.961914 
	C911.795593,1007.384460 888.904236,1008.652039 866.010437,1009.858521 
	C860.358215,1010.156372 854.663513,1009.701599 849.017639,1010.057617 
	C825.160278,1011.562012 801.332336,1013.641296 777.458130,1014.737976 
	C756.344543,1015.707825 735.184265,1015.673096 714.043884,1016.039856 
	C708.904968,1016.129028 703.763123,1016.053162 698.159058,1016.053162 
	C701.219421,1005.958313 705.519226,997.380676 713.555664,991.061768 
	C736.759705,972.816895 761.847534,957.875122 790.108398,948.964294 
	C804.659241,944.376282 819.825439,941.692627 834.274841,936.841553 
	C856.486511,929.384705 878.649536,921.648132 899.204041,910.015320 
	C911.840820,902.863403 921.280884,892.520813 929.884766,881.193054 
	C933.906677,875.897766 937.848328,870.541687 941.864685,865.242249 
	C942.444275,864.477539 943.121033,863.552551 943.952820,863.248047 
	C956.503296,858.654602 968.998596,853.883545 981.686279,849.698181 
	C997.015503,844.641541 1010.977295,837.081665 1024.134644,827.896606 
	C1031.046387,823.071594 1032.672119,816.786804 1028.731812,810.767700 
	C1025.400513,805.679260 1017.697815,804.635498 1011.244934,808.571960 
	C1004.997131,812.383301 999.149231,816.976318 992.601685,820.142639 
	C980.993042,825.756470 968.987732,830.549988 956.023193,836.174866 
	C957.605530,827.088318 958.673645,819.780273 960.174927,812.562378 
	C964.047791,793.942627 961.139343,775.911987 955.938477,758.012085 
	C950.020874,737.644897 939.164307,720.055725 925.433655,704.170776 
	C922.566895,700.854248 923.375854,699.254333 925.952820,696.460938 
	C932.370361,689.504272 938.575134,682.323059 944.451355,674.904114 
	C949.199280,668.909729 949.000122,662.520447 944.706238,658.116028 
	C939.422241,652.695740 930.744934,653.973450 927.581055,660.849182 
	C923.266663,670.224915 915.278137,676.354065 908.115601,683.184692 
	C907.322815,683.940796 904.604431,683.547424 903.315186,682.783020 
	C883.675659,671.137146 862.850586,662.098267 840.260498,658.931335 
	C826.767822,657.039673 812.706543,657.211060 799.110962,658.564880 
	C783.211731,660.148132 769.108398,657.573486 755.139648,649.693970 
	C728.634277,634.743042 701.886536,620.148132 674.647339,606.595276 
	C653.541321,596.093872 630.755127,590.434875 607.080261,588.952942 
	C603.437500,588.724915 599.808289,588.202881 596.164307,588.089661 
	C590.104370,587.901184 586.989014,585.298645 587.135620,579.153076 
	C587.253174,574.225464 587.957275,569.221375 589.133972,564.431274 
	C590.779419,557.732910 587.412720,551.367981 580.514771,549.415283 
	C574.979492,547.848267 569.068970,551.769897 567.993225,558.504761 
	C566.478577,567.988098 565.589783,577.571289 564.357117,587.740601 
	C561.593933,588.106018 558.377563,588.729553 555.135071,588.929565 
	C522.236938,590.959412 490.820618,598.746460 461.273895,613.449768 
	C448.926575,619.594299 438.363251,628.271301 429.710815,639.017517 
	C426.445221,643.073303 422.944580,644.776978 417.818817,643.983337 
	C408.163269,642.488342 398.216797,642.234131 389.430542,637.236877 
	C386.571259,635.610596 383.771667,633.760620 381.290253,631.613647 
	C376.293182,627.290100 370.086578,626.838379 365.977661,630.841370 
	C362.012268,634.704529 362.046051,640.808838 366.281738,645.773926 
	C374.430115,655.325623 385.458496,659.822937 397.191437,662.926880 
	C400.711792,663.858215 404.326294,664.620972 407.943909,664.945007 
	C411.634369,665.275696 412.113007,666.430786 411.249451,670.054688 
	C409.107605,679.042908 406.417297,688.170227 406.201874,697.294922 
	C405.648254,720.740784 414.635864,741.059204 429.479248,758.906555 
	C445.489624,778.157043 466.959167,789.094788 489.312531,799.142090 
	C511.541443,809.133423 534.683289,815.224915 558.627686,818.546875 
	C581.667969,821.743408 604.430176,821.044922 626.078735,811.081238 
	C637.566345,805.794067 645.453186,797.117981 649.320618,785.121704 
	C652.283875,775.930359 645.787720,768.180420 636.228882,768.984863 
	C631.421997,769.389404 628.529236,772.658203 627.354797,776.681763 
	C624.875916,785.174011 618.836670,789.478760 611.106445,792.097839 
	C596.184387,797.153625 580.771301,798.666626 565.373474,795.769409 
	C548.124268,792.523804 530.665588,789.355408 514.103943,783.765625 
	C495.269135,777.408752 476.801636,769.467224 460.833527,756.956299 
	C442.513031,742.602356 431.050323,724.096619 429.270294,700.840149 
	C427.925079,683.265137 435.572662,668.214661 446.609497,654.848938 
	C463.071289,634.913513 485.793732,626.387695 509.745544,619.998047 
	C529.593140,614.703308 549.720520,612.294983 570.286621,611.604004 
	C592.019775,610.873901 613.395569,611.970764 634.561890,616.946838 
	C654.870178,621.721191 673.271423,631.026672 691.408691,640.911987 
	C712.448669,652.379272 733.158508,664.479187 754.469849,675.411377 
	C766.860901,681.767761 780.353943,684.708557 794.609436,682.155884 
	C828.498169,676.087463 859.575684,684.373352 888.748413,701.374023 
	C901.163696,708.609070 909.202148,720.293823 917.314270,731.635986 
	C932.434875,752.777283 939.903259,776.394531 937.969360,802.509644 
	C936.162659,826.907166 927.262695,848.293579 911.549377,867.378784 
	C900.561218,880.724792 888.197449,891.455322 872.040649,897.505554 
	C851.970398,905.021362 832.218872,913.919556 811.556152,919.184631 
	C786.729187,925.510742 762.585388,932.816406 740.224487,945.409912 
	C720.999207,956.237427 702.322021,968.081543 688.939880,985.966309 
	C683.511047,993.221619 680.666992,1002.522888 677.285767,1011.143799 
	C675.919373,1014.627502 674.621094,1015.999023 670.738953,1016.077637 
	C645.286987,1016.592407 619.842163,1017.450500 594.393005,1018.118164 
	C579.586182,1018.506714 564.776428,1018.802551 549.966492,1019.045715 
	C528.159119,1019.403748 506.349701,1019.640442 484.543030,1020.031677 
	C481.610382,1020.084290 480.148773,1018.783997 478.052399,1016.765259 
	C474.915894,1013.744873 470.541504,1010.859558 466.365112,1010.278564 
	C452.086548,1008.292297 437.601288,1007.798523 423.317505,1005.840820 
	C412.135101,1004.308105 401.212738,1001.335571 392.549561,993.176331 
	C385.960907,986.971069 377.908417,986.758240 370.059509,989.348267 
	C353.951691,994.663391 331.607208,987.828552 321.360382,970.096313 
	C320.945099,969.377625 320.417877,968.724426 319.958832,968.030151 
	C311.406586,955.096436 308.281067,954.547852 293.529694,958.774658 
	C281.955292,962.091248 269.948151,964.017212 258.040192,966.002808 
	C251.489685,967.094971 245.179962,965.171936 239.182159,961.151855 
	C234.934341,956.693054 230.923279,952.864075 226.912201,949.035095 
	C226.912201,949.035095 226.975449,949.004089 226.899719,948.828369 
	C226.675964,948.373901 226.452728,948.183350 226.154282,948.080994 
z"/>
<path fill="#F7DDAF" opacity="1.000000" stroke="none" 
	d="
M226.946930,949.386597 
	C230.923279,952.864075 234.934341,956.693054 238.952072,960.898560 
	C234.966385,957.429382 230.974014,953.583740 226.946930,949.386597 
z"/>
<path fill="#F7DDAF" opacity="1.000000" stroke="none" 
	d="
M226.201050,948.311829 
	C226.452728,948.183350 226.675964,948.373901 226.904922,948.863159 
	C226.639664,949.035828 226.393661,948.858826 226.201050,948.311829 
z"/>
</svg>