<?xml version="1.0" encoding="UTF-8"?>
<svg version="1.1" xmlns="http://www.w3.org/2000/svg" width="180" height="180">
<path d="M0 0 C59.4 0 118.8 0 180 0 C180 59.4 180 118.8 180 180 C120.6 180 61.2 180 0 180 C0 120.6 0 61.2 0 0 Z " fill="#FEFEFE" transform="translate(0,0)"/>
<path d="M0 0 C2.80604974 -0.28598768 2.80604974 -0.28598768 6 -1 C12.09901868 -1.52309102 16.64170145 -1.06188489 22 2 C23.4375 4.1875 23.4375 4.1875 24 6 C24.9590625 5.505 24.9590625 5.505 25.9375 5 C31.47304887 3.19247384 36.74058528 3.13713063 42.125 5.5 C46.670929 8.11071424 50.44183123 11.3843438 53 16 C53.5414885 19.42454892 53.44287137 22.56950432 53 26 C53.9075 26.226875 54.815 26.45375 55.75 26.6875 C59.64619953 28.26096519 60.91089313 29.36340656 63 33 C63.85979838 36.76161789 64.45584526 40.40018639 63.38671875 44.15234375 C63.25910156 44.76207031 63.13148438 45.37179688 63 46 C63.66 46.66 64.32 47.32 65 48 C65.56697286 53.57523317 65.1492632 56.35525952 62.00390625 61.14453125 C60.83338223 63.30795113 60.47431629 65.20607907 60.0625 67.625 C59.20833051 72.077264 57.5249331 74.06255575 54 77 C53.319375 77.680625 52.63875 78.36125 51.9375 79.0625 C51.298125 79.701875 50.65875 80.34125 50 81 C49.46246094 81.61617188 48.92492187 82.23234375 48.37109375 82.8671875 C45.25382116 85.67119217 41.88969792 87.26995118 38.125 89.0625 C37.43019531 89.40087891 36.73539062 89.73925781 36.01953125 90.08789062 C34.64914051 90.75502058 33.27579415 91.41611689 31.89941406 92.07080078 C30.23477748 92.88514613 28.60925302 93.77845708 26.9921875 94.68359375 C18.78594913 98.29391011 8.83554971 97.32679352 0 97.5625 C-0.74634705 97.58367889 -1.49269409 97.60485779 -2.26165771 97.62667847 C-15.50876244 98.0012019 -28.74759565 98.12641712 -42 98 C-42 97.34 -42 96.68 -42 96 C-42.556875 95.95101562 -43.11375 95.90203125 -43.6875 95.8515625 C-57.50187266 94.49812734 -57.50187266 94.49812734 -61 91 C-63.0799815 90.90898926 -63.0799815 90.90898926 -65.375 91.125 C-68.61523113 91.1823954 -69.7241257 91.16821604 -72.5625 89.4375 C-74.4844884 86.17847619 -74.28577701 83.71510114 -74 80 C-74.721875 80.0825 -75.44375 80.165 -76.1875 80.25 C-79.91755397 79.91843965 -81.34685381 78.58143954 -84 76 C-86.56836425 71.76086592 -86.44672643 67.82808176 -86 63 C-85 59.9375 -85 59.9375 -84 58 C-84.928125 57.566875 -84.928125 57.566875 -85.875 57.125 C-88 56 -88 56 -90 54 C-90.71428447 49.30731716 -90.68776861 45.24327402 -88.375 41.0625 C-86 39 -86 39 -82.875 37.8125 C-79.83778082 36.33385426 -79.83778082 36.33385426 -79.3125 33.76953125 C-79.01834414 31.99146415 -78.73597555 30.21141077 -78.46484375 28.4296875 C-77.43337885 23.03833315 -73.71205692 20.69222749 -69.4375 17.75 C-64.45432444 14.48950739 -60.97313793 13.88729928 -55 14 C-54.90332031 13.40445313 -54.80664062 12.80890625 -54.70703125 12.1953125 C-53.8527842 9.542899 -52.82724152 8.62528107 -50.6875 6.875 C-50.09324219 6.37742187 -49.49898437 5.87984375 -48.88671875 5.3671875 C-44.29631745 2.04080975 -41.47464654 1.88040864 -35.75 2.1875 C-29.95015858 2.37085837 -26.28117005 1.71199792 -21.61328125 -1.81640625 C-15.4825718 -6.31423909 -5.53376464 -4.25763443 0 0 Z " fill="#F2D16D" transform="translate(100,37)"/>
<path d="M0 0 C2.80604974 -0.28598768 2.80604974 -0.28598768 6 -1 C12.09901868 -1.52309102 16.64170145 -1.06188489 22 2 C23.4375 4.1875 23.4375 4.1875 24 6 C24.9590625 5.505 24.9590625 5.505 25.9375 5 C31.47304887 3.19247384 36.74058528 3.13713063 42.125 5.5 C46.670929 8.11071424 50.44183123 11.3843438 53 16 C53.5414885 19.42454892 53.44287137 22.56950432 53 26 C53.9075 26.226875 54.815 26.45375 55.75 26.6875 C59.64619953 28.26096519 60.91089313 29.36340656 63 33 C63.85979838 36.76161789 64.45584526 40.40018639 63.38671875 44.15234375 C63.25910156 44.76207031 63.13148438 45.37179688 63 46 C63.66 46.66 64.32 47.32 65 48 C65.56697286 53.57523317 65.1492632 56.35525952 62.00390625 61.14453125 C60.83338223 63.30795113 60.47431629 65.20607907 60.0625 67.625 C59.20833051 72.077264 57.5249331 74.06255575 54 77 C53.319375 77.680625 52.63875 78.36125 51.9375 79.0625 C51.298125 79.701875 50.65875 80.34125 50 81 C49.46246094 81.61617188 48.92492187 82.23234375 48.37109375 82.8671875 C45.25382116 85.67119217 41.88969792 87.26995118 38.125 89.0625 C37.43019531 89.40087891 36.73539062 89.73925781 36.01953125 90.08789062 C34.64914051 90.75502058 33.27579415 91.41611689 31.89941406 92.07080078 C30.23477748 92.88514613 28.60925302 93.77845708 26.9921875 94.68359375 C18.78594913 98.29391011 8.83554971 97.32679352 0 97.5625 C-0.74634705 97.58367889 -1.49269409 97.60485779 -2.26165771 97.62667847 C-15.50876244 98.0012019 -28.74759565 98.12641712 -42 98 C-42 97.34 -42 96.68 -42 96 C-42.556875 95.95101562 -43.11375 95.90203125 -43.6875 95.8515625 C-57.50187266 94.49812734 -57.50187266 94.49812734 -61 91 C-63.0799815 90.90898926 -63.0799815 90.90898926 -65.375 91.125 C-68.61523113 91.1823954 -69.7241257 91.16821604 -72.5625 89.4375 C-74.4844884 86.17847619 -74.28577701 83.71510114 -74 80 C-74.721875 80.0825 -75.44375 80.165 -76.1875 80.25 C-79.91755397 79.91843965 -81.34685381 78.58143954 -84 76 C-86.56836425 71.76086592 -86.44672643 67.82808176 -86 63 C-85 59.9375 -85 59.9375 -84 58 C-84.928125 57.566875 -84.928125 57.566875 -85.875 57.125 C-88 56 -88 56 -90 54 C-90.71428447 49.30731716 -90.68776861 45.24327402 -88.375 41.0625 C-86 39 -86 39 -82.875 37.8125 C-79.83778082 36.33385426 -79.83778082 36.33385426 -79.3125 33.76953125 C-79.01834414 31.99146415 -78.73597555 30.21141077 -78.46484375 28.4296875 C-77.43337885 23.03833315 -73.71205692 20.69222749 -69.4375 17.75 C-64.45432444 14.48950739 -60.97313793 13.88729928 -55 14 C-54.90332031 13.40445313 -54.80664062 12.80890625 -54.70703125 12.1953125 C-53.8527842 9.542899 -52.82724152 8.62528107 -50.6875 6.875 C-50.09324219 6.37742187 -49.49898437 5.87984375 -48.88671875 5.3671875 C-44.29631745 2.04080975 -41.47464654 1.88040864 -35.75 2.1875 C-29.95015858 2.37085837 -26.28117005 1.71199792 -21.61328125 -1.81640625 C-15.4825718 -6.31423909 -5.53376464 -4.25763443 0 0 Z M-30 7 C-32.875 6.8125 -32.875 6.8125 -36 6 C-40.47022696 5.47937116 -43.2687558 5.61368231 -47.3125 7.75 C-51.4540008 11.21730299 -53.25034812 13.60250644 -54 19 C-54.56847656 18.96519531 -55.13695313 18.93039063 -55.72265625 18.89453125 C-61.92368153 18.67713303 -66.88417946 19.21475184 -71.73046875 23.546875 C-76.0050266 28.13618651 -77 31.73537351 -77 38 C-77.55429688 38.25394531 -78.10859375 38.50789063 -78.6796875 38.76953125 C-79.40414062 39.11371094 -80.12859375 39.45789063 -80.875 39.8125 C-81.59429687 40.14894531 -82.31359375 40.48539063 -83.0546875 40.83203125 C-85.30542806 41.99467097 -85.30542806 41.99467097 -87 45 C-87.46177357 49.05876852 -87.46177357 49.05876852 -87 53 C-84.77693597 55.58018323 -84.77693597 55.58018323 -82 57 C-81.34 57 -80.68 57 -80 57 C-80.495 58.010625 -80.99 59.02125 -81.5 60.0625 C-83.41256349 64.54025527 -83.77254301 68.61799238 -82.25 73.3125 C-79.95106571 76.41606129 -77.46411996 76.91074616 -73.75 77.625 C-72.38875 77.810625 -72.38875 77.810625 -71 78 C-71.03255208 80.01822917 -71.06510417 82.03645833 -71.09765625 84.0546875 C-71.12649242 86.08185404 -71.12649242 86.08185404 -70 88 C-69.24074219 87.96519531 -68.48148438 87.93039063 -67.69921875 87.89453125 C-66.20841797 87.85392578 -66.20841797 87.85392578 -64.6875 87.8125 C-63.70136719 87.77769531 -62.71523438 87.74289063 -61.69921875 87.70703125 C-58.54765236 88.04909707 -58.04291546 88.72427367 -56 91 C-53.67724823 91.40047444 -51.34260643 91.7397104 -49 92 C-48.67 92.33 -48.34 92.66 -48 93 C-40.21067229 95.28899682 -32.42320658 95.24164068 -24.375 95.125 C-23.18003906 95.11597656 -21.98507813 95.10695313 -20.75390625 95.09765625 C-17.83572166 95.07431077 -14.91797224 95.04156656 -12 95 C-11.70375732 94.20851563 -11.40751465 93.41703125 -11.10229492 92.6015625 C-9.16273338 88.02393952 -5.31596605 86.18405262 -1 84 C2.8316902 82.65631676 6.63787102 81.46899302 10.546875 80.37109375 C15.1039319 78.5616741 17.68866566 76.08458316 20.28515625 71.95703125 C21.8442631 67.68865676 21.95882281 63.14397719 20.08984375 58.96484375 C17.40140967 54.89329246 14.70844682 52.54094623 10 51 C8.20909851 50.91846759 6.41716422 50.85857729 4.625 50.8125 C-1.15476022 50.51206692 -4.94056172 48.69480574 -9.875 45.9375 C-18.09170896 41.43530135 -25.22780185 40.49155088 -34.5078125 42.55859375 C-38.47434066 43.85393597 -41.71661524 45.47978183 -44 49 C-44.56832657 53.47557172 -44.64251277 55.77084514 -42.5625 59.75 C-36.77439436 64.83223909 -30.87269617 66.44584975 -23.26171875 66.43359375 C-20.53053499 65.90999894 -19.08456235 64.79835241 -17 63 C-17.375 64.9375 -17.375 64.9375 -18 67 C-23.66904294 69.83452147 -30.98980079 67.87176894 -36.69921875 65.98046875 C-41.04845113 64.12706072 -44.01217304 61.75114779 -46.375 57.5625 C-47.0903083 54.62973599 -47.13989754 52.00779718 -47 49 C-47.804375 48.731875 -48.60875 48.46375 -49.4375 48.1875 C-50.283125 47.795625 -51.12875 47.40375 -52 47 C-52.33 46.01 -52.66 45.02 -53 44 C-52.1646875 44.495 -52.1646875 44.495 -51.3125 45 C-48.69715478 46.1309601 -46.8193354 46.15662974 -44 46 C-44 45.34 -44 44.68 -44 44 C-40.2849178 42.41471446 -36.6115904 41.3236812 -32.6875 40.375 C-31.08455078 39.98441406 -31.08455078 39.98441406 -29.44921875 39.5859375 C-28.64097656 39.39257812 -27.83273438 39.19921875 -27 39 C-26.814375 38.0409375 -26.814375 38.0409375 -26.625 37.0625 C-26.41875 36.381875 -26.2125 35.70125 -26 35 C-25.34 34.67 -24.68 34.34 -24 34 C-24 35.65 -24 37.3 -24 39 C-23.34515625 39.14695313 -22.6903125 39.29390625 -22.015625 39.4453125 C-16.65592074 40.76252795 -12.08265581 42.37696165 -7.25 45.0625 C-1.25134945 48.23456128 4.09478751 49.03105754 10.75 49.67578125 C14 50 14 50 16.296875 50.6328125 C18.19030613 51.25012097 18.19030613 51.25012097 20.25 49.5625 C20.8275 49.046875 21.405 48.53125 22 48 C21.649375 48.556875 21.29875 49.11375 20.9375 49.6875 C19.75722231 52.59885163 20.08613535 54.02993989 21 57 C21.66 57.99 22.32 58.98 23 60 C23.4140625 62.48046875 23.4140625 62.48046875 23.625 65.1875 C23.73714844 66.53908203 23.73714844 66.53908203 23.8515625 67.91796875 C23.90054688 68.60503906 23.94953125 69.29210937 24 70 C26.76276177 69.47731534 29.3260876 68.89130413 32 68 C32 68.66 32 69.32 32 70 C31.32453125 70.23074219 30.6490625 70.46148437 29.953125 70.69921875 C24.35304671 72.60003326 24.35304671 72.60003326 20.0625 76.4375 C15.72144229 81.83093534 8.19365527 83.74796424 1.6875 85.5 C-2.94661083 86.79341211 -5.64379809 88.55547699 -9 92 C-9 92.66 -9 93.32 -9 94 C-4.85422725 94.05863894 -0.70856295 94.09380984 3.4375 94.125 C5.18450195 94.15013672 5.18450195 94.15013672 6.96679688 94.17578125 C16.41533177 94.22901243 24.00544474 93.70635994 32.125 88.5625 C35.40547227 86.54567904 38.55198439 84.63159381 42.125 83.1875 C45.06911426 82.18662329 45.06911426 82.18662329 47 80 C47.433125 78.515 47.433125 78.515 47.875 77 C49 74 49 74 51.0625 72.75 C51.701875 72.5025 52.34125 72.255 53 72 C54.21022067 69.57955865 53.97527792 68.24173659 53.8125 65.5625 C53.7734375 63.10546875 53.7734375 63.10546875 54 61 C55.9375 59.375 55.9375 59.375 58 58 C58.91378144 54.41014435 59.40702579 52.05826706 58.0625 48.5625 C57.711875 48.046875 57.36125 47.53125 57 47 C56.34 47 55.68 47 55 47 C55.33 46.29875 55.66 45.5975 56 44.875 C57.1492099 41.57102153 57.50618296 39.47096888 57 36 C54.09989671 32.35415587 51.43698984 30.39448252 47 29 C46.99742187 28.43152344 46.99484375 27.86304687 46.9921875 27.27734375 C46.71738419 21.79043768 45.66130345 18.4179648 41.8046875 14.44140625 C36.75600784 10.40901924 31.36965484 9.51002655 25 10 C24.34773438 10.22945312 23.69546875 10.45890625 23.0234375 10.6953125 C21 11 21 11 19.1484375 9.8203125 C18.27058594 8.98113281 18.27058594 8.98113281 17.375 8.125 C12.80164334 3.8312372 9.96241022 3.80831172 3.75390625 3.81640625 C0.84160303 3.87684432 0.84160303 3.87684432 -2.3125 5.25 C-3.6428125 5.62125 -3.6428125 5.62125 -5 6 C-6.35576971 5.00797338 -7.70870604 4.01137037 -9.03515625 2.98046875 C-16.78507207 -0.88678547 -24.22701294 1.50862206 -30 7 Z " fill="#B87F52" transform="translate(100,37)"/>
<path d="M0 0 C1.17571451 3.67410785 1.07366746 7.16929183 1 11 C-0.8125 12.0625 -0.8125 12.0625 -3 13 C-3.99 12.67 -4.98 12.34 -6 12 C-5.525625 11.67 -5.05125 11.34 -4.5625 11 C-2.78777274 8.72834911 -2.70947493 7.68540759 -2.4375 4.875 C-2.2209375 2.956875 -2.2209375 2.956875 -2 1 C-1.34 0.67 -0.68 0.34 0 0 Z " fill="#B67B4E" transform="translate(23,64)"/>
<path d="M0 0 C0.66 0.33 1.32 0.66 2 1 C1.608125 1.515625 1.21625 2.03125 0.8125 2.5625 C-1.50346531 5.67707403 -3.74980884 8.83756918 -6 12 C-6.99 11.67 -7.98 11.34 -9 11 C-7.59928507 5.70841026 -4.14512755 3.22521956 0 0 Z " fill="#BE895E" transform="translate(31,54)"/>
<path d="M0 0 C0.33 0.99 0.66 1.98 1 3 C4.96 3 8.92 3 13 3 C12.67 3.66 12.34 4.32 12 5 C7.38 5 2.76 5 -2 5 C-1.34 3.35 -0.68 1.7 0 0 Z " fill="#B4784D" transform="translate(89,129)"/>
<path d="M0 0 C0.66 0.33 1.32 0.66 2 1 C1.6875 2.875 1.6875 2.875 1 5 C-2.20380017 7.13586678 -3.01939967 7.23132175 -6.6875 7.125 C-7.89986328 7.09792969 -7.89986328 7.09792969 -9.13671875 7.0703125 C-10.05904297 7.03550781 -10.05904297 7.03550781 -11 7 C-11 6.67 -11 6.34 -11 6 C-9.9275 5.7525 -8.855 5.505 -7.75 5.25 C-4.00350563 4.00116854 -2.47926118 2.97511342 0 0 Z " fill="#BF8851" transform="translate(82,99)"/>
<path d="M0 0 C0.66 0.33 1.32 0.66 2 1 C1.01 2.98 0.02 4.96 -1 7 C1.97 7 4.94 7 8 7 C8 7.33 8 7.66 8 8 C4.7 8 1.4 8 -2 8 C-2.66 6.68 -3.32 5.36 -4 4 C-2.68 2.68 -1.36 1.36 0 0 Z " fill="#C18A53" transform="translate(92,124)"/>
<path d="M0 0 C0.66 0.33 1.32 0.66 2 1 C1.34 2.32 0.68 3.64 0 5 C-0.66 5 -1.32 5 -2 5 C-2.33 5.99 -2.66 6.98 -3 8 C-5.0625 8.6875 -5.0625 8.6875 -7 9 C-5.64978174 4.58110387 -3.73884332 2.65654657 0 0 Z " fill="#BE8A61" transform="translate(17,74)"/>
<path d="M0 0 C0.66 0.33 1.32 0.66 2 1 C2 2.98 2 4.96 2 7 C1.01 7.33 0.02 7.66 -1 8 C-1.33 5.69 -1.66 3.38 -2 1 C-1.34 0.67 -0.68 0.34 0 0 Z " fill="#C18953" transform="translate(54,87)"/>
</svg>
